<?xml version="1.0" encoding="utf-8"?>
<svg viewBox="374.10003662109375 182 329.20001220703125 121.30001831054688" width="329.20001220703125" height="121.30001831054688" xmlns="http://www.w3.org/2000/svg"><g transform="matrix(1, 0, 0, 1, 0, 2.842170943040401e-14)">
	<path d="M 397.200006 292.700012 A 1.1 2.7 0 0 1 396.100006 295.400012 A 1.1 2.7 0 0 1 395.000006 292.700012 A 1.1 2.7 0 0 1 396.100006 290.000012 A 1.1 2.7 0 0 1 397.200006 292.700012 Z" class="st17" style="fill: rgb(0, 4, 0);"/>
	<path d="M 397.200006 299.5 A 1.1 2.7 0 0 1 396.100006 302.2 A 1.1 2.7 0 0 1 395.000006 299.5 A 1.1 2.7 0 0 1 396.100006 296.8 A 1.1 2.7 0 0 1 397.200006 299.5 Z" class="st17" style="fill: rgb(0, 4, 0);"/>
	<g>
		<path class="st17" d="M404.2,296.9h-5.5c-0.5,0-0.9-0.4-0.9-0.9c0-0.5,0.4-0.9,0.9-0.9h5.5c0.5,0,0.9,0.4,0.9,0.9&#10;&#9;&#9;&#9;C405.1,296.4,404.7,296.9,404.2,296.9z" style="fill: rgb(0, 4, 0);"/>
	</g>
	<path d="M 392.3999938964844 288.6000061035156 L 374.1000061035156 288.6000061035156 L 378.70001220703125 303.29998779296875 L 392.3999938964844 303.29998779296875 Z" class="st18" style="fill: rgb(45, 51, 62);"/>
	<path d="M 450.20001220703125 250.3000030517578 L 450.20001220703125 193.10000610351562 L 458.8999938964844 193.10000610351562 L 458.8999938964844 182 L 483.70001220703125 182 L 483.70001220703125 250.3000030517578 Z" class="st19" style="fill: rgb(190, 191, 193);"/>
	<path class="st20" d="M385.1,286.5h4.9C387.2,286.2,385.1,286.5,385.1,286.5z" style="fill: none;"/>
	<path class="st21" d="M403.5,303.3h238.9c0,0,17.5-3.9,33.8-16.9H389.9C395.6,287.1,404.1,290.2,403.5,303.3z" style="fill: rgb(188, 90, 58);"/>
	<path d="M 463.299988 193.300003 H 478.799988 V 201.800003 H 463.299988 V 193.300003 Z" class="st22" style="fill: rgb(222, 223, 224);"/>
	<path d="M 463.299988 206.100006 H 478.799988 V 214.600006 H 463.299988 V 206.100006 Z" class="st22" style="fill: rgb(222, 223, 224);"/>
	<path d="M 463.299988 218.800003 H 478.799988 V 227.300003 H 463.299988 V 218.800003 Z" class="st22" style="fill: rgb(222, 223, 224);"/>
	<path class="st3" d="M380.9,250.3v-17.9l13.5-12.7h26.2V205l23-9.1c0,0,2.8-1,2.8,2.6v33.1H475v18.7H380.9z" style="fill: rgb(255, 245, 210);"/>
	<path d="M 425.899994 210.399994 H 441.399994 V 218.899994 H 425.899994 V 210.399994 Z" class="st18" style="fill: rgb(45, 51, 62);"/>
	<path d="M 425.899994 224.899994 H 441.399994 V 233.399994 H 425.899994 V 224.899994 Z" class="st18" style="fill: rgb(45, 51, 62);"/>
	<path d="M 395.200012 224.899994 H 417.700012 V 233.399994 H 395.200012 V 224.899994 Z" class="st18" style="fill: rgb(45, 51, 62);"/>
	<g>
		<path d="M 589.599976 218.699997 H 633.099976 V 239.899998 H 589.599976 V 218.699997 Z" class="st1" style="fill: rgb(192, 227, 207);"/>
		<g>
			<g>
				<path class="st2" d="M592.4,238.1c-0.3,0-0.5-0.2-0.5-0.5v-16.3c0-0.3,0.2-0.5,0.5-0.5c0.3,0,0.5,0.2,0.5,0.5v16.3&#10;&#9;&#9;&#9;&#9;&#9;C592.9,237.9,592.7,238.1,592.4,238.1z" style="fill: rgb(172, 203, 186);"/>
			</g>
		</g>
		<g>
			<g>
				<path class="st2" d="M596.6,238.1c-0.3,0-0.5-0.2-0.5-0.5v-16.3c0-0.3,0.2-0.5,0.5-0.5c0.3,0,0.5,0.2,0.5,0.5v16.3&#10;&#9;&#9;&#9;&#9;&#9;C597.1,237.9,596.9,238.1,596.6,238.1z" style="fill: rgb(172, 203, 186);"/>
			</g>
		</g>
		<g>
			<g>
				<path class="st2" d="M600.8,238.1c-0.3,0-0.5-0.2-0.5-0.5v-16.3c0-0.3,0.2-0.5,0.5-0.5c0.3,0,0.5,0.2,0.5,0.5v16.3&#10;&#9;&#9;&#9;&#9;&#9;C601.3,237.9,601.1,238.1,600.8,238.1z" style="fill: rgb(172, 203, 186);"/>
			</g>
		</g>
		<g>
			<g>
				<path class="st2" d="M605,238.1c-0.3,0-0.5-0.2-0.5-0.5v-16.3c0-0.3,0.2-0.5,0.5-0.5c0.3,0,0.5,0.2,0.5,0.5v16.3&#10;&#9;&#9;&#9;&#9;&#9;C605.5,237.9,605.3,238.1,605,238.1z" style="fill: rgb(172, 203, 186);"/>
			</g>
		</g>
		<g>
			<g>
				<path class="st2" d="M609.2,238.1c-0.3,0-0.5-0.2-0.5-0.5v-16.3c0-0.3,0.2-0.5,0.5-0.5c0.3,0,0.5,0.2,0.5,0.5v16.3&#10;&#9;&#9;&#9;&#9;&#9;C609.7,237.9,609.5,238.1,609.2,238.1z" style="fill: rgb(172, 203, 186);"/>
			</g>
		</g>
		<g>
			<g>
				<path class="st2" d="M613.4,238.1c-0.3,0-0.5-0.2-0.5-0.5v-16.3c0-0.3,0.2-0.5,0.5-0.5c0.3,0,0.5,0.2,0.5,0.5v16.3&#10;&#9;&#9;&#9;&#9;&#9;C613.9,237.9,613.7,238.1,613.4,238.1z" style="fill: rgb(172, 203, 186);"/>
			</g>
		</g>
		<g>
			<g>
				<path class="st2" d="M617.7,238.1c-0.3,0-0.5-0.2-0.5-0.5v-16.3c0-0.3,0.2-0.5,0.5-0.5c0.3,0,0.5,0.2,0.5,0.5v16.3&#10;&#9;&#9;&#9;&#9;&#9;C618.2,237.9,617.9,238.1,617.7,238.1z" style="fill: rgb(172, 203, 186);"/>
			</g>
		</g>
		<g>
			<g>
				<path class="st2" d="M621.9,238.1c-0.3,0-0.5-0.2-0.5-0.5v-16.3c0-0.3,0.2-0.5,0.5-0.5c0.3,0,0.5,0.2,0.5,0.5v16.3&#10;&#9;&#9;&#9;&#9;&#9;C622.4,237.9,622.1,238.1,621.9,238.1z" style="fill: rgb(172, 203, 186);"/>
			</g>
		</g>
		<g>
			<g>
				<path class="st2" d="M626.1,238.1c-0.3,0-0.5-0.2-0.5-0.5v-16.3c0-0.3,0.2-0.5,0.5-0.5s0.5,0.2,0.5,0.5v16.3&#10;&#9;&#9;&#9;&#9;&#9;C626.6,237.9,626.4,238.1,626.1,238.1z" style="fill: rgb(172, 203, 186);"/>
			</g>
		</g>
		<g>
			<g>
				<path class="st2" d="M630.3,238.1c-0.3,0-0.5-0.2-0.5-0.5v-16.3c0-0.3,0.2-0.5,0.5-0.5c0.3,0,0.5,0.2,0.5,0.5v16.3&#10;&#9;&#9;&#9;&#9;&#9;C630.8,237.9,630.6,238.1,630.3,238.1z" style="fill: rgb(172, 203, 186);"/>
			</g>
		</g>
	</g>
	<g>
		<path d="M 589.599976 244.399994 H 633.099976 V 265.599995 H 589.599976 V 244.399994 Z" class="st1" style="fill: rgb(192, 227, 207);"/>
		<g>
			<g>
				<path class="st2" d="M592.4,263.8c-0.3,0-0.5-0.2-0.5-0.5V247c0-0.3,0.2-0.5,0.5-0.5c0.3,0,0.5,0.2,0.5,0.5v16.3&#10;&#9;&#9;&#9;&#9;&#9;C592.9,263.6,592.7,263.8,592.4,263.8z" style="fill: rgb(172, 203, 186);"/>
			</g>
		</g>
		<g>
			<g>
				<path class="st2" d="M596.6,263.8c-0.3,0-0.5-0.2-0.5-0.5V247c0-0.3,0.2-0.5,0.5-0.5c0.3,0,0.5,0.2,0.5,0.5v16.3&#10;&#9;&#9;&#9;&#9;&#9;C597.1,263.6,596.9,263.8,596.6,263.8z" style="fill: rgb(172, 203, 186);"/>
			</g>
		</g>
		<g>
			<g>
				<path class="st2" d="M600.8,263.8c-0.3,0-0.5-0.2-0.5-0.5V247c0-0.3,0.2-0.5,0.5-0.5c0.3,0,0.5,0.2,0.5,0.5v16.3&#10;&#9;&#9;&#9;&#9;&#9;C601.3,263.6,601.1,263.8,600.8,263.8z" style="fill: rgb(172, 203, 186);"/>
			</g>
		</g>
		<g>
			<g>
				<path class="st2" d="M605,263.8c-0.3,0-0.5-0.2-0.5-0.5V247c0-0.3,0.2-0.5,0.5-0.5c0.3,0,0.5,0.2,0.5,0.5v16.3&#10;&#9;&#9;&#9;&#9;&#9;C605.5,263.6,605.3,263.8,605,263.8z" style="fill: rgb(172, 203, 186);"/>
			</g>
		</g>
		<g>
			<g>
				<path class="st2" d="M609.2,263.8c-0.3,0-0.5-0.2-0.5-0.5V247c0-0.3,0.2-0.5,0.5-0.5c0.3,0,0.5,0.2,0.5,0.5v16.3&#10;&#9;&#9;&#9;&#9;&#9;C609.7,263.6,609.5,263.8,609.2,263.8z" style="fill: rgb(172, 203, 186);"/>
			</g>
		</g>
		<g>
			<g>
				<path class="st2" d="M613.4,263.8c-0.3,0-0.5-0.2-0.5-0.5V247c0-0.3,0.2-0.5,0.5-0.5c0.3,0,0.5,0.2,0.5,0.5v16.3&#10;&#9;&#9;&#9;&#9;&#9;C613.9,263.6,613.7,263.8,613.4,263.8z" style="fill: rgb(172, 203, 186);"/>
			</g>
		</g>
		<g>
			<g>
				<path class="st2" d="M617.7,263.8c-0.3,0-0.5-0.2-0.5-0.5V247c0-0.3,0.2-0.5,0.5-0.5c0.3,0,0.5,0.2,0.5,0.5v16.3&#10;&#9;&#9;&#9;&#9;&#9;C618.2,263.6,617.9,263.8,617.7,263.8z" style="fill: rgb(172, 203, 186);"/>
			</g>
		</g>
		<g>
			<g>
				<path class="st2" d="M621.9,263.8c-0.3,0-0.5-0.2-0.5-0.5V247c0-0.3,0.2-0.5,0.5-0.5c0.3,0,0.5,0.2,0.5,0.5v16.3&#10;&#9;&#9;&#9;&#9;&#9;C622.4,263.6,622.1,263.8,621.9,263.8z" style="fill: rgb(172, 203, 186);"/>
			</g>
		</g>
		<g>
			<g>
				<path class="st2" d="M626.1,263.8c-0.3,0-0.5-0.2-0.5-0.5V247c0-0.3,0.2-0.5,0.5-0.5s0.5,0.2,0.5,0.5v16.3&#10;&#9;&#9;&#9;&#9;&#9;C626.6,263.6,626.4,263.8,626.1,263.8z" style="fill: rgb(172, 203, 186);"/>
			</g>
		</g>
		<g>
			<g>
				<path class="st2" d="M630.3,263.8c-0.3,0-0.5-0.2-0.5-0.5V247c0-0.3,0.2-0.5,0.5-0.5c0.3,0,0.5,0.2,0.5,0.5v16.3&#10;&#9;&#9;&#9;&#9;&#9;C630.8,263.6,630.6,263.8,630.3,263.8z" style="fill: rgb(172, 203, 186);"/>
			</g>
		</g>
	</g>
	<g>
		<path d="M 540.400024 218.699997 H 583.900024 V 239.899998 H 540.400024 V 218.699997 Z" class="st3" style="fill: rgb(255, 245, 210);"/>
		<g>
			<g>
				<path class="st4" d="M543.2,238.1c-0.3,0-0.5-0.2-0.5-0.5v-16.3c0-0.3,0.2-0.5,0.5-0.5c0.3,0,0.5,0.2,0.5,0.5v16.3&#10;&#9;&#9;&#9;&#9;&#9;C543.7,237.9,543.4,238.1,543.2,238.1z" style="fill: rgb(228, 219, 189);"/>
			</g>
		</g>
		<g>
			<g>
				<path class="st4" d="M547.4,238.1c-0.3,0-0.5-0.2-0.5-0.5v-16.3c0-0.3,0.2-0.5,0.5-0.5c0.3,0,0.5,0.2,0.5,0.5v16.3&#10;&#9;&#9;&#9;&#9;&#9;C547.9,237.9,547.7,238.1,547.4,238.1z" style="fill: rgb(228, 219, 189);"/>
			</g>
		</g>
		<g>
			<g>
				<path class="st4" d="M551.6,238.1c-0.3,0-0.5-0.2-0.5-0.5v-16.3c0-0.3,0.2-0.5,0.5-0.5c0.3,0,0.5,0.2,0.5,0.5v16.3&#10;&#9;&#9;&#9;&#9;&#9;C552.1,237.9,551.9,238.1,551.6,238.1z" style="fill: rgb(228, 219, 189);"/>
			</g>
		</g>
		<g>
			<g>
				<path class="st4" d="M555.8,238.1c-0.3,0-0.5-0.2-0.5-0.5v-16.3c0-0.3,0.2-0.5,0.5-0.5c0.3,0,0.5,0.2,0.5,0.5v16.3&#10;&#9;&#9;&#9;&#9;&#9;C556.3,237.9,556.1,238.1,555.8,238.1z" style="fill: rgb(228, 219, 189);"/>
			</g>
		</g>
		<g>
			<g>
				<path class="st4" d="M560,238.1c-0.3,0-0.5-0.2-0.5-0.5v-16.3c0-0.3,0.2-0.5,0.5-0.5c0.3,0,0.5,0.2,0.5,0.5v16.3&#10;&#9;&#9;&#9;&#9;&#9;C560.5,237.9,560.3,238.1,560,238.1z" style="fill: rgb(228, 219, 189);"/>
			</g>
		</g>
		<g>
			<g>
				<path class="st4" d="M564.2,238.1c-0.3,0-0.5-0.2-0.5-0.5v-16.3c0-0.3,0.2-0.5,0.5-0.5c0.3,0,0.5,0.2,0.5,0.5v16.3&#10;&#9;&#9;&#9;&#9;&#9;C564.7,237.9,564.5,238.1,564.2,238.1z" style="fill: rgb(228, 219, 189);"/>
			</g>
		</g>
		<g>
			<g>
				<path class="st4" d="M568.4,238.1c-0.3,0-0.5-0.2-0.5-0.5v-16.3c0-0.3,0.2-0.5,0.5-0.5c0.3,0,0.5,0.2,0.5,0.5v16.3&#10;&#9;&#9;&#9;&#9;&#9;C568.9,237.9,568.7,238.1,568.4,238.1z" style="fill: rgb(228, 219, 189);"/>
			</g>
		</g>
		<g>
			<g>
				<path class="st4" d="M572.7,238.1c-0.3,0-0.5-0.2-0.5-0.5v-16.3c0-0.3,0.2-0.5,0.5-0.5c0.3,0,0.5,0.2,0.5,0.5v16.3&#10;&#9;&#9;&#9;&#9;&#9;C573.1,237.9,572.9,238.1,572.7,238.1z" style="fill: rgb(228, 219, 189);"/>
			</g>
		</g>
		<g>
			<g>
				<path class="st4" d="M576.9,238.1c-0.3,0-0.5-0.2-0.5-0.5v-16.3c0-0.3,0.2-0.5,0.5-0.5c0.3,0,0.5,0.2,0.5,0.5v16.3&#10;&#9;&#9;&#9;&#9;&#9;C577.4,237.9,577.1,238.1,576.9,238.1z" style="fill: rgb(228, 219, 189);"/>
			</g>
		</g>
		<g>
			<g>
				<path class="st4" d="M581.1,238.1c-0.3,0-0.5-0.2-0.5-0.5v-16.3c0-0.3,0.2-0.5,0.5-0.5s0.5,0.2,0.5,0.5v16.3&#10;&#9;&#9;&#9;&#9;&#9;C581.6,237.9,581.4,238.1,581.1,238.1z" style="fill: rgb(228, 219, 189);"/>
			</g>
		</g>
	</g>
	<g>
		<path d="M 540.400024 244.399994 H 583.900024 V 265.599995 H 540.400024 V 244.399994 Z" class="st3" style="fill: rgb(255, 245, 210);"/>
		<g>
			<g>
				<path class="st4" d="M543.2,263.8c-0.3,0-0.5-0.2-0.5-0.5V247c0-0.3,0.2-0.5,0.5-0.5c0.3,0,0.5,0.2,0.5,0.5v16.3&#10;&#9;&#9;&#9;&#9;&#9;C543.7,263.6,543.4,263.8,543.2,263.8z" style="fill: rgb(228, 219, 189);"/>
			</g>
		</g>
		<g>
			<g>
				<path class="st4" d="M547.4,263.8c-0.3,0-0.5-0.2-0.5-0.5V247c0-0.3,0.2-0.5,0.5-0.5c0.3,0,0.5,0.2,0.5,0.5v16.3&#10;&#9;&#9;&#9;&#9;&#9;C547.9,263.6,547.7,263.8,547.4,263.8z" style="fill: rgb(228, 219, 189);"/>
			</g>
		</g>
		<g>
			<g>
				<path class="st4" d="M551.6,263.8c-0.3,0-0.5-0.2-0.5-0.5V247c0-0.3,0.2-0.5,0.5-0.5c0.3,0,0.5,0.2,0.5,0.5v16.3&#10;&#9;&#9;&#9;&#9;&#9;C552.1,263.6,551.9,263.8,551.6,263.8z" style="fill: rgb(228, 219, 189);"/>
			</g>
		</g>
		<g>
			<g>
				<path class="st4" d="M555.8,263.8c-0.3,0-0.5-0.2-0.5-0.5V247c0-0.3,0.2-0.5,0.5-0.5c0.3,0,0.5,0.2,0.5,0.5v16.3&#10;&#9;&#9;&#9;&#9;&#9;C556.3,263.6,556.1,263.8,555.8,263.8z" style="fill: rgb(228, 219, 189);"/>
			</g>
		</g>
		<g>
			<g>
				<path class="st4" d="M560,263.8c-0.3,0-0.5-0.2-0.5-0.5V247c0-0.3,0.2-0.5,0.5-0.5c0.3,0,0.5,0.2,0.5,0.5v16.3&#10;&#9;&#9;&#9;&#9;&#9;C560.5,263.6,560.3,263.8,560,263.8z" style="fill: rgb(228, 219, 189);"/>
			</g>
		</g>
		<g>
			<g>
				<path class="st4" d="M564.2,263.8c-0.3,0-0.5-0.2-0.5-0.5V247c0-0.3,0.2-0.5,0.5-0.5c0.3,0,0.5,0.2,0.5,0.5v16.3&#10;&#9;&#9;&#9;&#9;&#9;C564.7,263.6,564.5,263.8,564.2,263.8z" style="fill: rgb(228, 219, 189);"/>
			</g>
		</g>
		<g>
			<g>
				<path class="st4" d="M568.4,263.8c-0.3,0-0.5-0.2-0.5-0.5V247c0-0.3,0.2-0.5,0.5-0.5c0.3,0,0.5,0.2,0.5,0.5v16.3&#10;&#9;&#9;&#9;&#9;&#9;C568.9,263.6,568.7,263.8,568.4,263.8z" style="fill: rgb(228, 219, 189);"/>
			</g>
		</g>
		<g>
			<g>
				<path class="st4" d="M572.7,263.8c-0.3,0-0.5-0.2-0.5-0.5V247c0-0.3,0.2-0.5,0.5-0.5c0.3,0,0.5,0.2,0.5,0.5v16.3&#10;&#9;&#9;&#9;&#9;&#9;C573.1,263.6,572.9,263.8,572.7,263.8z" style="fill: rgb(228, 219, 189);"/>
			</g>
		</g>
		<g>
			<g>
				<path class="st4" d="M576.9,263.8c-0.3,0-0.5-0.2-0.5-0.5V247c0-0.3,0.2-0.5,0.5-0.5c0.3,0,0.5,0.2,0.5,0.5v16.3&#10;&#9;&#9;&#9;&#9;&#9;C577.4,263.6,577.1,263.8,576.9,263.8z" style="fill: rgb(228, 219, 189);"/>
			</g>
		</g>
		<g>
			<g>
				<path class="st4" d="M581.1,263.8c-0.3,0-0.5-0.2-0.5-0.5V247c0-0.3,0.2-0.5,0.5-0.5s0.5,0.2,0.5,0.5v16.3&#10;&#9;&#9;&#9;&#9;&#9;C581.6,263.6,581.4,263.8,581.1,263.8z" style="fill: rgb(228, 219, 189);"/>
			</g>
		</g>
	</g>
	<g>
		<path d="M 491 192.899994 H 534.5 V 214.099995 H 491 V 192.899994 Z" class="st9" style="fill: rgb(242, 133, 98);"/>
		<g>
			<g>
				<path class="st11" d="M493.8,212.3c-0.3,0-0.5-0.2-0.5-0.5v-16.3c0-0.3,0.2-0.5,0.5-0.5c0.3,0,0.5,0.2,0.5,0.5v16.3&#10;&#9;&#9;&#9;&#9;&#9;C494.3,212.1,494.1,212.3,493.8,212.3z" style="fill: rgb(215, 118, 87);"/>
			</g>
		</g>
		<g>
			<g>
				<path class="st11" d="M498,212.3c-0.3,0-0.5-0.2-0.5-0.5v-16.3c0-0.3,0.2-0.5,0.5-0.5c0.3,0,0.5,0.2,0.5,0.5v16.3&#10;&#9;&#9;&#9;&#9;&#9;C498.5,212.1,498.3,212.3,498,212.3z" style="fill: rgb(215, 118, 87);"/>
			</g>
		</g>
		<g>
			<g>
				<path class="st11" d="M502.2,212.3c-0.3,0-0.5-0.2-0.5-0.5v-16.3c0-0.3,0.2-0.5,0.5-0.5c0.3,0,0.5,0.2,0.5,0.5v16.3&#10;&#9;&#9;&#9;&#9;&#9;C502.7,212.1,502.5,212.3,502.2,212.3z" style="fill: rgb(215, 118, 87);"/>
			</g>
		</g>
		<g>
			<g>
				<path class="st11" d="M506.5,212.3c-0.3,0-0.5-0.2-0.5-0.5v-16.3c0-0.3,0.2-0.5,0.5-0.5c0.3,0,0.5,0.2,0.5,0.5v16.3&#10;&#9;&#9;&#9;&#9;&#9;C507,212.1,506.7,212.3,506.5,212.3z" style="fill: rgb(215, 118, 87);"/>
			</g>
		</g>
		<g>
			<g>
				<path class="st11" d="M510.7,212.3c-0.3,0-0.5-0.2-0.5-0.5v-16.3c0-0.3,0.2-0.5,0.5-0.5c0.3,0,0.5,0.2,0.5,0.5v16.3&#10;&#9;&#9;&#9;&#9;&#9;C511.2,212.1,510.9,212.3,510.7,212.3z" style="fill: rgb(215, 118, 87);"/>
			</g>
		</g>
		<g>
			<g>
				<path class="st11" d="M514.9,212.3c-0.3,0-0.5-0.2-0.5-0.5v-16.3c0-0.3,0.2-0.5,0.5-0.5s0.5,0.2,0.5,0.5v16.3&#10;&#9;&#9;&#9;&#9;&#9;C515.4,212.1,515.2,212.3,514.9,212.3z" style="fill: rgb(215, 118, 87);"/>
			</g>
		</g>
		<g>
			<g>
				<path class="st11" d="M519.1,212.3c-0.3,0-0.5-0.2-0.5-0.5v-16.3c0-0.3,0.2-0.5,0.5-0.5c0.3,0,0.5,0.2,0.5,0.5v16.3&#10;&#9;&#9;&#9;&#9;&#9;C519.6,212.1,519.4,212.3,519.1,212.3z" style="fill: rgb(215, 118, 87);"/>
			</g>
		</g>
		<g>
			<g>
				<path class="st11" d="M523.3,212.3c-0.3,0-0.5-0.2-0.5-0.5v-16.3c0-0.3,0.2-0.5,0.5-0.5c0.3,0,0.5,0.2,0.5,0.5v16.3&#10;&#9;&#9;&#9;&#9;&#9;C523.8,212.1,523.6,212.3,523.3,212.3z" style="fill: rgb(215, 118, 87);"/>
			</g>
		</g>
		<g>
			<g>
				<path class="st11" d="M527.5,212.3c-0.3,0-0.5-0.2-0.5-0.5v-16.3c0-0.3,0.2-0.5,0.5-0.5s0.5,0.2,0.5,0.5v16.3&#10;&#9;&#9;&#9;&#9;&#9;C528,212.1,527.8,212.3,527.5,212.3z" style="fill: rgb(215, 118, 87);"/>
			</g>
		</g>
		<g>
			<g>
				<path class="st11" d="M531.7,212.3c-0.3,0-0.5-0.2-0.5-0.5v-16.3c0-0.3,0.2-0.5,0.5-0.5s0.5,0.2,0.5,0.5v16.3&#10;&#9;&#9;&#9;&#9;&#9;C532.2,212.1,532,212.3,531.7,212.3z" style="fill: rgb(215, 118, 87);"/>
			</g>
		</g>
	</g>
	<g>
		<path d="M 540.400024 192.899994 H 583.900024 V 214.099995 H 540.400024 V 192.899994 Z" class="st3" style="fill: rgb(255, 245, 210);"/>
		<g>
			<g>
				<path class="st4" d="M543.2,212.3c-0.3,0-0.5-0.2-0.5-0.5v-16.3c0-0.3,0.2-0.5,0.5-0.5c0.3,0,0.5,0.2,0.5,0.5v16.3&#10;&#9;&#9;&#9;&#9;&#9;C543.7,212.1,543.4,212.3,543.2,212.3z" style="fill: rgb(228, 219, 189);"/>
			</g>
		</g>
		<g>
			<g>
				<path class="st4" d="M547.4,212.3c-0.3,0-0.5-0.2-0.5-0.5v-16.3c0-0.3,0.2-0.5,0.5-0.5c0.3,0,0.5,0.2,0.5,0.5v16.3&#10;&#9;&#9;&#9;&#9;&#9;C547.9,212.1,547.7,212.3,547.4,212.3z" style="fill: rgb(228, 219, 189);"/>
			</g>
		</g>
		<g>
			<g>
				<path class="st4" d="M551.6,212.3c-0.3,0-0.5-0.2-0.5-0.5v-16.3c0-0.3,0.2-0.5,0.5-0.5c0.3,0,0.5,0.2,0.5,0.5v16.3&#10;&#9;&#9;&#9;&#9;&#9;C552.1,212.1,551.9,212.3,551.6,212.3z" style="fill: rgb(228, 219, 189);"/>
			</g>
		</g>
		<g>
			<g>
				<path class="st4" d="M555.8,212.3c-0.3,0-0.5-0.2-0.5-0.5v-16.3c0-0.3,0.2-0.5,0.5-0.5c0.3,0,0.5,0.2,0.5,0.5v16.3&#10;&#9;&#9;&#9;&#9;&#9;C556.3,212.1,556.1,212.3,555.8,212.3z" style="fill: rgb(228, 219, 189);"/>
			</g>
		</g>
		<g>
			<g>
				<path class="st4" d="M560,212.3c-0.3,0-0.5-0.2-0.5-0.5v-16.3c0-0.3,0.2-0.5,0.5-0.5c0.3,0,0.5,0.2,0.5,0.5v16.3&#10;&#9;&#9;&#9;&#9;&#9;C560.5,212.1,560.3,212.3,560,212.3z" style="fill: rgb(228, 219, 189);"/>
			</g>
		</g>
		<g>
			<g>
				<path class="st4" d="M564.2,212.3c-0.3,0-0.5-0.2-0.5-0.5v-16.3c0-0.3,0.2-0.5,0.5-0.5c0.3,0,0.5,0.2,0.5,0.5v16.3&#10;&#9;&#9;&#9;&#9;&#9;C564.7,212.1,564.5,212.3,564.2,212.3z" style="fill: rgb(228, 219, 189);"/>
			</g>
		</g>
		<g>
			<g>
				<path class="st4" d="M568.4,212.3c-0.3,0-0.5-0.2-0.5-0.5v-16.3c0-0.3,0.2-0.5,0.5-0.5c0.3,0,0.5,0.2,0.5,0.5v16.3&#10;&#9;&#9;&#9;&#9;&#9;C568.9,212.1,568.7,212.3,568.4,212.3z" style="fill: rgb(228, 219, 189);"/>
			</g>
		</g>
		<g>
			<g>
				<path class="st4" d="M572.7,212.3c-0.3,0-0.5-0.2-0.5-0.5v-16.3c0-0.3,0.2-0.5,0.5-0.5c0.3,0,0.5,0.2,0.5,0.5v16.3&#10;&#9;&#9;&#9;&#9;&#9;C573.1,212.1,572.9,212.3,572.7,212.3z" style="fill: rgb(228, 219, 189);"/>
			</g>
		</g>
		<g>
			<g>
				<path class="st4" d="M576.9,212.3c-0.3,0-0.5-0.2-0.5-0.5v-16.3c0-0.3,0.2-0.5,0.5-0.5c0.3,0,0.5,0.2,0.5,0.5v16.3&#10;&#9;&#9;&#9;&#9;&#9;C577.4,212.1,577.1,212.3,576.9,212.3z" style="fill: rgb(228, 219, 189);"/>
			</g>
		</g>
		<g>
			<g>
				<path class="st4" d="M581.1,212.3c-0.3,0-0.5-0.2-0.5-0.5v-16.3c0-0.3,0.2-0.5,0.5-0.5s0.5,0.2,0.5,0.5v16.3&#10;&#9;&#9;&#9;&#9;&#9;C581.6,212.1,581.4,212.3,581.1,212.3z" style="fill: rgb(228, 219, 189);"/>
			</g>
		</g>
	</g>
	<g>
		<path d="M 589.599976 192.899994 H 633.099976 V 214.099995 H 589.599976 V 192.899994 Z" class="st1" style="fill: rgb(192, 227, 207);"/>
		<g>
			<g>
				<path class="st2" d="M592.4,212.3c-0.3,0-0.5-0.2-0.5-0.5v-16.3c0-0.3,0.2-0.5,0.5-0.5c0.3,0,0.5,0.2,0.5,0.5v16.3&#10;&#9;&#9;&#9;&#9;&#9;C592.9,212.1,592.7,212.3,592.4,212.3z" style="fill: rgb(172, 203, 186);"/>
			</g>
		</g>
		<g>
			<g>
				<path class="st2" d="M596.6,212.3c-0.3,0-0.5-0.2-0.5-0.5v-16.3c0-0.3,0.2-0.5,0.5-0.5c0.3,0,0.5,0.2,0.5,0.5v16.3&#10;&#9;&#9;&#9;&#9;&#9;C597.1,212.1,596.9,212.3,596.6,212.3z" style="fill: rgb(172, 203, 186);"/>
			</g>
		</g>
		<g>
			<g>
				<path class="st2" d="M600.8,212.3c-0.3,0-0.5-0.2-0.5-0.5v-16.3c0-0.3,0.2-0.5,0.5-0.5c0.3,0,0.5,0.2,0.5,0.5v16.3&#10;&#9;&#9;&#9;&#9;&#9;C601.3,212.1,601.1,212.3,600.8,212.3z" style="fill: rgb(172, 203, 186);"/>
			</g>
		</g>
		<g>
			<g>
				<path class="st2" d="M605,212.3c-0.3,0-0.5-0.2-0.5-0.5v-16.3c0-0.3,0.2-0.5,0.5-0.5c0.3,0,0.5,0.2,0.5,0.5v16.3&#10;&#9;&#9;&#9;&#9;&#9;C605.5,212.1,605.3,212.3,605,212.3z" style="fill: rgb(172, 203, 186);"/>
			</g>
		</g>
		<g>
			<g>
				<path class="st2" d="M609.2,212.3c-0.3,0-0.5-0.2-0.5-0.5v-16.3c0-0.3,0.2-0.5,0.5-0.5c0.3,0,0.5,0.2,0.5,0.5v16.3&#10;&#9;&#9;&#9;&#9;&#9;C609.7,212.1,609.5,212.3,609.2,212.3z" style="fill: rgb(172, 203, 186);"/>
			</g>
		</g>
		<g>
			<g>
				<path class="st2" d="M613.4,212.3c-0.3,0-0.5-0.2-0.5-0.5v-16.3c0-0.3,0.2-0.5,0.5-0.5c0.3,0,0.5,0.2,0.5,0.5v16.3&#10;&#9;&#9;&#9;&#9;&#9;C613.9,212.1,613.7,212.3,613.4,212.3z" style="fill: rgb(172, 203, 186);"/>
			</g>
		</g>
		<g>
			<g>
				<path class="st2" d="M617.7,212.3c-0.3,0-0.5-0.2-0.5-0.5v-16.3c0-0.3,0.2-0.5,0.5-0.5c0.3,0,0.5,0.2,0.5,0.5v16.3&#10;&#9;&#9;&#9;&#9;&#9;C618.2,212.1,617.9,212.3,617.7,212.3z" style="fill: rgb(172, 203, 186);"/>
			</g>
		</g>
		<g>
			<g>
				<path class="st2" d="M621.9,212.3c-0.3,0-0.5-0.2-0.5-0.5v-16.3c0-0.3,0.2-0.5,0.5-0.5c0.3,0,0.5,0.2,0.5,0.5v16.3&#10;&#9;&#9;&#9;&#9;&#9;C622.4,212.1,622.1,212.3,621.9,212.3z" style="fill: rgb(172, 203, 186);"/>
			</g>
		</g>
		<g>
			<g>
				<path class="st2" d="M626.1,212.3c-0.3,0-0.5-0.2-0.5-0.5v-16.3c0-0.3,0.2-0.5,0.5-0.5s0.5,0.2,0.5,0.5v16.3&#10;&#9;&#9;&#9;&#9;&#9;C626.6,212.1,626.4,212.3,626.1,212.3z" style="fill: rgb(172, 203, 186);"/>
			</g>
		</g>
		<g>
			<g>
				<path class="st2" d="M630.3,212.3c-0.3,0-0.5-0.2-0.5-0.5v-16.3c0-0.3,0.2-0.5,0.5-0.5c0.3,0,0.5,0.2,0.5,0.5v16.3&#10;&#9;&#9;&#9;&#9;&#9;C630.8,212.1,630.6,212.3,630.3,212.3z" style="fill: rgb(172, 203, 186);"/>
			</g>
		</g>
	</g>
	<g>
		<path d="M 491 218.699997 H 534.5 V 239.899998 H 491 V 218.699997 Z" class="st9" style="fill: rgb(242, 133, 98);"/>
		<g>
			<g>
				<path class="st11" d="M493.8,238.1c-0.3,0-0.5-0.2-0.5-0.5v-16.3c0-0.3,0.2-0.5,0.5-0.5c0.3,0,0.5,0.2,0.5,0.5v16.3&#10;&#9;&#9;&#9;&#9;&#9;C494.3,237.9,494.1,238.1,493.8,238.1z" style="fill: rgb(215, 118, 87);"/>
			</g>
		</g>
		<g>
			<g>
				<path class="st11" d="M498,238.1c-0.3,0-0.5-0.2-0.5-0.5v-16.3c0-0.3,0.2-0.5,0.5-0.5c0.3,0,0.5,0.2,0.5,0.5v16.3&#10;&#9;&#9;&#9;&#9;&#9;C498.5,237.9,498.3,238.1,498,238.1z" style="fill: rgb(215, 118, 87);"/>
			</g>
		</g>
		<g>
			<g>
				<path class="st11" d="M502.2,238.1c-0.3,0-0.5-0.2-0.5-0.5v-16.3c0-0.3,0.2-0.5,0.5-0.5c0.3,0,0.5,0.2,0.5,0.5v16.3&#10;&#9;&#9;&#9;&#9;&#9;C502.7,237.9,502.5,238.1,502.2,238.1z" style="fill: rgb(215, 118, 87);"/>
			</g>
		</g>
		<g>
			<g>
				<path class="st11" d="M506.5,238.1c-0.3,0-0.5-0.2-0.5-0.5v-16.3c0-0.3,0.2-0.5,0.5-0.5c0.3,0,0.5,0.2,0.5,0.5v16.3&#10;&#9;&#9;&#9;&#9;&#9;C507,237.9,506.7,238.1,506.5,238.1z" style="fill: rgb(215, 118, 87);"/>
			</g>
		</g>
		<g>
			<g>
				<path class="st11" d="M510.7,238.1c-0.3,0-0.5-0.2-0.5-0.5v-16.3c0-0.3,0.2-0.5,0.5-0.5c0.3,0,0.5,0.2,0.5,0.5v16.3&#10;&#9;&#9;&#9;&#9;&#9;C511.2,237.9,510.9,238.1,510.7,238.1z" style="fill: rgb(215, 118, 87);"/>
			</g>
		</g>
		<g>
			<g>
				<path class="st11" d="M514.9,238.1c-0.3,0-0.5-0.2-0.5-0.5v-16.3c0-0.3,0.2-0.5,0.5-0.5s0.5,0.2,0.5,0.5v16.3&#10;&#9;&#9;&#9;&#9;&#9;C515.4,237.9,515.2,238.1,514.9,238.1z" style="fill: rgb(215, 118, 87);"/>
			</g>
		</g>
		<g>
			<g>
				<path class="st11" d="M519.1,238.1c-0.3,0-0.5-0.2-0.5-0.5v-16.3c0-0.3,0.2-0.5,0.5-0.5c0.3,0,0.5,0.2,0.5,0.5v16.3&#10;&#9;&#9;&#9;&#9;&#9;C519.6,237.9,519.4,238.1,519.1,238.1z" style="fill: rgb(215, 118, 87);"/>
			</g>
		</g>
		<g>
			<g>
				<path class="st11" d="M523.3,238.1c-0.3,0-0.5-0.2-0.5-0.5v-16.3c0-0.3,0.2-0.5,0.5-0.5c0.3,0,0.5,0.2,0.5,0.5v16.3&#10;&#9;&#9;&#9;&#9;&#9;C523.8,237.9,523.6,238.1,523.3,238.1z" style="fill: rgb(215, 118, 87);"/>
			</g>
		</g>
		<g>
			<g>
				<path class="st11" d="M527.5,238.1c-0.3,0-0.5-0.2-0.5-0.5v-16.3c0-0.3,0.2-0.5,0.5-0.5s0.5,0.2,0.5,0.5v16.3&#10;&#9;&#9;&#9;&#9;&#9;C528,237.9,527.8,238.1,527.5,238.1z" style="fill: rgb(215, 118, 87);"/>
			</g>
		</g>
		<g>
			<g>
				<path class="st11" d="M531.7,238.1c-0.3,0-0.5-0.2-0.5-0.5v-16.3c0-0.3,0.2-0.5,0.5-0.5s0.5,0.2,0.5,0.5v16.3&#10;&#9;&#9;&#9;&#9;&#9;C532.2,237.9,532,238.1,531.7,238.1z" style="fill: rgb(215, 118, 87);"/>
			</g>
		</g>
	</g>
	<g>
		<path d="M 491 244.399994 H 534.5 V 265.599995 H 491 V 244.399994 Z" class="st9" style="fill: rgb(242, 133, 98);"/>
		<g>
			<g>
				<path class="st11" d="M493.8,263.8c-0.3,0-0.5-0.2-0.5-0.5V247c0-0.3,0.2-0.5,0.5-0.5c0.3,0,0.5,0.2,0.5,0.5v16.3&#10;&#9;&#9;&#9;&#9;&#9;C494.3,263.6,494.1,263.8,493.8,263.8z" style="fill: rgb(215, 118, 87);"/>
			</g>
		</g>
		<g>
			<g>
				<path class="st11" d="M498,263.8c-0.3,0-0.5-0.2-0.5-0.5V247c0-0.3,0.2-0.5,0.5-0.5c0.3,0,0.5,0.2,0.5,0.5v16.3&#10;&#9;&#9;&#9;&#9;&#9;C498.5,263.6,498.3,263.8,498,263.8z" style="fill: rgb(215, 118, 87);"/>
			</g>
		</g>
		<g>
			<g>
				<path class="st11" d="M502.2,263.8c-0.3,0-0.5-0.2-0.5-0.5V247c0-0.3,0.2-0.5,0.5-0.5c0.3,0,0.5,0.2,0.5,0.5v16.3&#10;&#9;&#9;&#9;&#9;&#9;C502.7,263.6,502.5,263.8,502.2,263.8z" style="fill: rgb(215, 118, 87);"/>
			</g>
		</g>
		<g>
			<g>
				<path class="st11" d="M506.5,263.8c-0.3,0-0.5-0.2-0.5-0.5V247c0-0.3,0.2-0.5,0.5-0.5c0.3,0,0.5,0.2,0.5,0.5v16.3&#10;&#9;&#9;&#9;&#9;&#9;C507,263.6,506.7,263.8,506.5,263.8z" style="fill: rgb(215, 118, 87);"/>
			</g>
		</g>
		<g>
			<g>
				<path class="st11" d="M510.7,263.8c-0.3,0-0.5-0.2-0.5-0.5V247c0-0.3,0.2-0.5,0.5-0.5c0.3,0,0.5,0.2,0.5,0.5v16.3&#10;&#9;&#9;&#9;&#9;&#9;C511.2,263.6,510.9,263.8,510.7,263.8z" style="fill: rgb(215, 118, 87);"/>
			</g>
		</g>
		<g>
			<g>
				<path class="st11" d="M514.9,263.8c-0.3,0-0.5-0.2-0.5-0.5V247c0-0.3,0.2-0.5,0.5-0.5s0.5,0.2,0.5,0.5v16.3&#10;&#9;&#9;&#9;&#9;&#9;C515.4,263.6,515.2,263.8,514.9,263.8z" style="fill: rgb(215, 118, 87);"/>
			</g>
		</g>
		<g>
			<g>
				<path class="st11" d="M519.1,263.8c-0.3,0-0.5-0.2-0.5-0.5V247c0-0.3,0.2-0.5,0.5-0.5c0.3,0,0.5,0.2,0.5,0.5v16.3&#10;&#9;&#9;&#9;&#9;&#9;C519.6,263.6,519.4,263.8,519.1,263.8z" style="fill: rgb(215, 118, 87);"/>
			</g>
		</g>
		<g>
			<g>
				<path class="st11" d="M523.3,263.8c-0.3,0-0.5-0.2-0.5-0.5V247c0-0.3,0.2-0.5,0.5-0.5c0.3,0,0.5,0.2,0.5,0.5v16.3&#10;&#9;&#9;&#9;&#9;&#9;C523.8,263.6,523.6,263.8,523.3,263.8z" style="fill: rgb(215, 118, 87);"/>
			</g>
		</g>
		<g>
			<g>
				<path class="st11" d="M527.5,263.8c-0.3,0-0.5-0.2-0.5-0.5V247c0-0.3,0.2-0.5,0.5-0.5s0.5,0.2,0.5,0.5v16.3&#10;&#9;&#9;&#9;&#9;&#9;C528,263.6,527.8,263.8,527.5,263.8z" style="fill: rgb(215, 118, 87);"/>
			</g>
		</g>
		<g>
			<g>
				<path class="st11" d="M531.7,263.8c-0.3,0-0.5-0.2-0.5-0.5V247c0-0.3,0.2-0.5,0.5-0.5s0.5,0.2,0.5,0.5v16.3&#10;&#9;&#9;&#9;&#9;&#9;C532.2,263.6,532,263.8,531.7,263.8z" style="fill: rgb(215, 118, 87);"/>
			</g>
		</g>
	</g>
	<g>
		<path d="M 639 218.699997 H 682.5 V 239.899998 H 639 V 218.699997 Z" class="st3" style="fill: rgb(255, 245, 210);"/>
		<g>
			<g>
				<path class="st4" d="M641.7,238.1c-0.3,0-0.5-0.2-0.5-0.5v-16.3c0-0.3,0.2-0.5,0.5-0.5c0.3,0,0.5,0.2,0.5,0.5v16.3&#10;&#9;&#9;&#9;&#9;&#9;C642.2,237.9,642,238.1,641.7,238.1z" style="fill: rgb(228, 219, 189);"/>
			</g>
		</g>
		<g>
			<g>
				<path class="st4" d="M645.9,238.1c-0.3,0-0.5-0.2-0.5-0.5v-16.3c0-0.3,0.2-0.5,0.5-0.5c0.3,0,0.5,0.2,0.5,0.5v16.3&#10;&#9;&#9;&#9;&#9;&#9;C646.4,237.9,646.2,238.1,645.9,238.1z" style="fill: rgb(228, 219, 189);"/>
			</g>
		</g>
		<g>
			<g>
				<path class="st4" d="M650.2,238.1c-0.3,0-0.5-0.2-0.5-0.5v-16.3c0-0.3,0.2-0.5,0.5-0.5c0.3,0,0.5,0.2,0.5,0.5v16.3&#10;&#9;&#9;&#9;&#9;&#9;C650.7,237.9,650.4,238.1,650.2,238.1z" style="fill: rgb(228, 219, 189);"/>
			</g>
		</g>
		<g>
			<g>
				<path class="st4" d="M654.4,238.1c-0.3,0-0.5-0.2-0.5-0.5v-16.3c0-0.3,0.2-0.5,0.5-0.5c0.3,0,0.5,0.2,0.5,0.5v16.3&#10;&#9;&#9;&#9;&#9;&#9;C654.9,237.9,654.6,238.1,654.4,238.1z" style="fill: rgb(228, 219, 189);"/>
			</g>
		</g>
		<g>
			<g>
				<path class="st4" d="M658.6,238.1c-0.3,0-0.5-0.2-0.5-0.5v-16.3c0-0.3,0.2-0.5,0.5-0.5c0.3,0,0.5,0.2,0.5,0.5v16.3&#10;&#9;&#9;&#9;&#9;&#9;C659.1,237.9,658.9,238.1,658.6,238.1z" style="fill: rgb(228, 219, 189);"/>
			</g>
		</g>
		<g>
			<g>
				<path class="st4" d="M662.8,238.1c-0.3,0-0.5-0.2-0.5-0.5v-16.3c0-0.3,0.2-0.5,0.5-0.5c0.3,0,0.5,0.2,0.5,0.5v16.3&#10;&#9;&#9;&#9;&#9;&#9;C663.3,237.9,663.1,238.1,662.8,238.1z" style="fill: rgb(228, 219, 189);"/>
			</g>
		</g>
		<g>
			<g>
				<path class="st4" d="M667,238.1c-0.3,0-0.5-0.2-0.5-0.5v-16.3c0-0.3,0.2-0.5,0.5-0.5c0.3,0,0.5,0.2,0.5,0.5v16.3&#10;&#9;&#9;&#9;&#9;&#9;C667.5,237.9,667.3,238.1,667,238.1z" style="fill: rgb(228, 219, 189);"/>
			</g>
		</g>
		<g>
			<g>
				<path class="st4" d="M671.2,238.1c-0.3,0-0.5-0.2-0.5-0.5v-16.3c0-0.3,0.2-0.5,0.5-0.5c0.3,0,0.5,0.2,0.5,0.5v16.3&#10;&#9;&#9;&#9;&#9;&#9;C671.7,237.9,671.5,238.1,671.2,238.1z" style="fill: rgb(228, 219, 189);"/>
			</g>
		</g>
		<g>
			<g>
				<path class="st4" d="M675.4,238.1c-0.3,0-0.5-0.2-0.5-0.5v-16.3c0-0.3,0.2-0.5,0.5-0.5s0.5,0.2,0.5,0.5v16.3&#10;&#9;&#9;&#9;&#9;&#9;C675.9,237.9,675.7,238.1,675.4,238.1z" style="fill: rgb(228, 219, 189);"/>
			</g>
		</g>
		<g>
			<g>
				<path class="st4" d="M679.6,238.1c-0.3,0-0.5-0.2-0.5-0.5v-16.3c0-0.3,0.2-0.5,0.5-0.5c0.3,0,0.5,0.2,0.5,0.5v16.3&#10;&#9;&#9;&#9;&#9;&#9;C680.1,237.9,679.9,238.1,679.6,238.1z" style="fill: rgb(228, 219, 189);"/>
			</g>
		</g>
	</g>
	<g>
		<path d="M 639 244.399994 H 682.5 V 265.599995 H 639 V 244.399994 Z" class="st3" style="fill: rgb(255, 245, 210);"/>
		<g>
			<g>
				<path class="st4" d="M641.7,263.8c-0.3,0-0.5-0.2-0.5-0.5V247c0-0.3,0.2-0.5,0.5-0.5c0.3,0,0.5,0.2,0.5,0.5v16.3&#10;&#9;&#9;&#9;&#9;&#9;C642.2,263.6,642,263.8,641.7,263.8z" style="fill: rgb(228, 219, 189);"/>
			</g>
		</g>
		<g>
			<g>
				<path class="st4" d="M645.9,263.8c-0.3,0-0.5-0.2-0.5-0.5V247c0-0.3,0.2-0.5,0.5-0.5c0.3,0,0.5,0.2,0.5,0.5v16.3&#10;&#9;&#9;&#9;&#9;&#9;C646.4,263.6,646.2,263.8,645.9,263.8z" style="fill: rgb(228, 219, 189);"/>
			</g>
		</g>
		<g>
			<g>
				<path class="st4" d="M650.2,263.8c-0.3,0-0.5-0.2-0.5-0.5V247c0-0.3,0.2-0.5,0.5-0.5c0.3,0,0.5,0.2,0.5,0.5v16.3&#10;&#9;&#9;&#9;&#9;&#9;C650.7,263.6,650.4,263.8,650.2,263.8z" style="fill: rgb(228, 219, 189);"/>
			</g>
		</g>
		<g>
			<g>
				<path class="st4" d="M654.4,263.8c-0.3,0-0.5-0.2-0.5-0.5V247c0-0.3,0.2-0.5,0.5-0.5c0.3,0,0.5,0.2,0.5,0.5v16.3&#10;&#9;&#9;&#9;&#9;&#9;C654.9,263.6,654.6,263.8,654.4,263.8z" style="fill: rgb(228, 219, 189);"/>
			</g>
		</g>
		<g>
			<g>
				<path class="st4" d="M658.6,263.8c-0.3,0-0.5-0.2-0.5-0.5V247c0-0.3,0.2-0.5,0.5-0.5c0.3,0,0.5,0.2,0.5,0.5v16.3&#10;&#9;&#9;&#9;&#9;&#9;C659.1,263.6,658.9,263.8,658.6,263.8z" style="fill: rgb(228, 219, 189);"/>
			</g>
		</g>
		<g>
			<g>
				<path class="st4" d="M662.8,263.8c-0.3,0-0.5-0.2-0.5-0.5V247c0-0.3,0.2-0.5,0.5-0.5c0.3,0,0.5,0.2,0.5,0.5v16.3&#10;&#9;&#9;&#9;&#9;&#9;C663.3,263.6,663.1,263.8,662.8,263.8z" style="fill: rgb(228, 219, 189);"/>
			</g>
		</g>
		<g>
			<g>
				<path class="st4" d="M667,263.8c-0.3,0-0.5-0.2-0.5-0.5V247c0-0.3,0.2-0.5,0.5-0.5c0.3,0,0.5,0.2,0.5,0.5v16.3&#10;&#9;&#9;&#9;&#9;&#9;C667.5,263.6,667.3,263.8,667,263.8z" style="fill: rgb(228, 219, 189);"/>
			</g>
		</g>
		<g>
			<g>
				<path class="st4" d="M671.2,263.8c-0.3,0-0.5-0.2-0.5-0.5V247c0-0.3,0.2-0.5,0.5-0.5c0.3,0,0.5,0.2,0.5,0.5v16.3&#10;&#9;&#9;&#9;&#9;&#9;C671.7,263.6,671.5,263.8,671.2,263.8z" style="fill: rgb(228, 219, 189);"/>
			</g>
		</g>
		<g>
			<g>
				<path class="st4" d="M675.4,263.8c-0.3,0-0.5-0.2-0.5-0.5V247c0-0.3,0.2-0.5,0.5-0.5s0.5,0.2,0.5,0.5v16.3&#10;&#9;&#9;&#9;&#9;&#9;C675.9,263.6,675.7,263.8,675.4,263.8z" style="fill: rgb(228, 219, 189);"/>
			</g>
		</g>
		<g>
			<g>
				<path class="st4" d="M679.6,263.8c-0.3,0-0.5-0.2-0.5-0.5V247c0-0.3,0.2-0.5,0.5-0.5c0.3,0,0.5,0.2,0.5,0.5v16.3&#10;&#9;&#9;&#9;&#9;&#9;C680.1,263.6,679.9,263.8,679.6,263.8z" style="fill: rgb(228, 219, 189);"/>
			</g>
		</g>
	</g>
	<g>
		<path d="M 639 192.899994 H 682.5 V 214.099995 H 639 V 192.899994 Z" class="st3" style="fill: rgb(255, 245, 210);"/>
		<g>
			<g>
				<path class="st4" d="M641.7,212.3c-0.3,0-0.5-0.2-0.5-0.5v-16.3c0-0.3,0.2-0.5,0.5-0.5c0.3,0,0.5,0.2,0.5,0.5v16.3&#10;&#9;&#9;&#9;&#9;&#9;C642.2,212.1,642,212.3,641.7,212.3z" style="fill: rgb(228, 219, 189);"/>
			</g>
		</g>
		<g>
			<g>
				<path class="st4" d="M645.9,212.3c-0.3,0-0.5-0.2-0.5-0.5v-16.3c0-0.3,0.2-0.5,0.5-0.5c0.3,0,0.5,0.2,0.5,0.5v16.3&#10;&#9;&#9;&#9;&#9;&#9;C646.4,212.1,646.2,212.3,645.9,212.3z" style="fill: rgb(228, 219, 189);"/>
			</g>
		</g>
		<g>
			<g>
				<path class="st4" d="M650.2,212.3c-0.3,0-0.5-0.2-0.5-0.5v-16.3c0-0.3,0.2-0.5,0.5-0.5c0.3,0,0.5,0.2,0.5,0.5v16.3&#10;&#9;&#9;&#9;&#9;&#9;C650.7,212.1,650.4,212.3,650.2,212.3z" style="fill: rgb(228, 219, 189);"/>
			</g>
		</g>
		<g>
			<g>
				<path class="st4" d="M654.4,212.3c-0.3,0-0.5-0.2-0.5-0.5v-16.3c0-0.3,0.2-0.5,0.5-0.5c0.3,0,0.5,0.2,0.5,0.5v16.3&#10;&#9;&#9;&#9;&#9;&#9;C654.9,212.1,654.6,212.3,654.4,212.3z" style="fill: rgb(228, 219, 189);"/>
			</g>
		</g>
		<g>
			<g>
				<path class="st4" d="M658.6,212.3c-0.3,0-0.5-0.2-0.5-0.5v-16.3c0-0.3,0.2-0.5,0.5-0.5c0.3,0,0.5,0.2,0.5,0.5v16.3&#10;&#9;&#9;&#9;&#9;&#9;C659.1,212.1,658.9,212.3,658.6,212.3z" style="fill: rgb(228, 219, 189);"/>
			</g>
		</g>
		<g>
			<g>
				<path class="st4" d="M662.8,212.3c-0.3,0-0.5-0.2-0.5-0.5v-16.3c0-0.3,0.2-0.5,0.5-0.5c0.3,0,0.5,0.2,0.5,0.5v16.3&#10;&#9;&#9;&#9;&#9;&#9;C663.3,212.1,663.1,212.3,662.8,212.3z" style="fill: rgb(228, 219, 189);"/>
			</g>
		</g>
		<g>
			<g>
				<path class="st4" d="M667,212.3c-0.3,0-0.5-0.2-0.5-0.5v-16.3c0-0.3,0.2-0.5,0.5-0.5c0.3,0,0.5,0.2,0.5,0.5v16.3&#10;&#9;&#9;&#9;&#9;&#9;C667.5,212.1,667.3,212.3,667,212.3z" style="fill: rgb(228, 219, 189);"/>
			</g>
		</g>
		<g>
			<g>
				<path class="st4" d="M671.2,212.3c-0.3,0-0.5-0.2-0.5-0.5v-16.3c0-0.3,0.2-0.5,0.5-0.5c0.3,0,0.5,0.2,0.5,0.5v16.3&#10;&#9;&#9;&#9;&#9;&#9;C671.7,212.1,671.5,212.3,671.2,212.3z" style="fill: rgb(228, 219, 189);"/>
			</g>
		</g>
		<g>
			<g>
				<path class="st4" d="M675.4,212.3c-0.3,0-0.5-0.2-0.5-0.5v-16.3c0-0.3,0.2-0.5,0.5-0.5s0.5,0.2,0.5,0.5v16.3&#10;&#9;&#9;&#9;&#9;&#9;C675.9,212.1,675.7,212.3,675.4,212.3z" style="fill: rgb(228, 219, 189);"/>
			</g>
		</g>
		<g>
			<g>
				<path class="st4" d="M679.6,212.3c-0.3,0-0.5-0.2-0.5-0.5v-16.3c0-0.3,0.2-0.5,0.5-0.5c0.3,0,0.5,0.2,0.5,0.5v16.3&#10;&#9;&#9;&#9;&#9;&#9;C680.1,212.1,679.9,212.3,679.6,212.3z" style="fill: rgb(228, 219, 189);"/>
			</g>
		</g>
	</g>
	<path class="st18" d="M703.2,226.9h-27.4c0,0,0.6,9.9-46.7,10.3h73.8C703.2,233.9,703.3,230.5,703.2,226.9z" style="fill: rgb(45, 51, 62);"/>
	<path class="st23" d="M702.9,237.2h-73.8l-21,20.7H698C700.5,251.8,702.2,244.9,702.9,237.2z" style="fill: rgb(143, 191, 194);"/>
	<path class="st18" d="M698,257.9h-89.9v10.7h-99.9l-10.3-10.7H375.3v15.5c0,0,1.2,11.1,9.7,13.1c0,0,2.1-0.3,4.9,0h286.3&#10;&#9;&#9;C684.8,279.7,692.9,270.4,698,257.9z" style="fill: rgb(45, 51, 62);"/>
	<path d="M 494 253.89999389648438 L 375.29998779296875 254 L 375.29998779296875 257.8999938964844 L 497.79998779296875 257.8999938964844 Z" class="st23" style="fill: rgb(143, 191, 194);"/>
</g></svg>