<svg xmlns="http://www.w3.org/2000/svg" viewBox="0 0 100 100"><path fill="#EF9C18" d="M63.488 31.76c2.17-.01 4.339-.041 6.508-.072 1.39-.007 2.779-.012 4.168-.016l3.764-.028C81 32 81 32 82.912 33.356 84.427 35.644 84.282 37.318 84 40c-1 1-1 1-4.875 1.125-3.433-.033-6.795-.26-10.208-.613-5.906-.554-11.782-.73-17.71-.828l-3.249-.063c-3.381-.065-6.763-.124-10.146-.183l-6.931-.131C25.254 39.2 19.627 39.098 14 39v-3c3.395-.486 6.791-.962 10.187-1.437l2.85-.409c12.133-1.686 24.21-2.36 36.45-2.394Z"/><path fill="#083767" d="m64.063 53.75 2.629-.016c2.49-.011 4.978-.008 7.468 0l2.305-.012C81.77 53.77 81.77 53.77 84 56c-.367 2.935-.864 3.864-3 6-6.009.595-12.15.013-18.148-.508-9.406-.692-18.801-.6-28.227-.554A5860.626 5860.626 0 0 0 16 61l-1-3.001c16.27-3.734 32.448-4.203 49.063-4.25Z"/><path fill="#EF9C18" d="M63.163 42.578c1.683-.01 3.366-.027 5.05-.051 2.391-.03 4.782-.031 7.174-.023l2.194-.034c3.286.046 4.978.11 7.407 2.424C86 47 86 47 85.813 49.188 85 51 85 51 83 52c-2.517-.065-4.992-.19-7.5-.375l-2.031-.133c-2.885-.196-5.758-.406-8.629-.752-8.307-.992-16.615-.85-24.965-.803-1.544.006-3.089.01-4.633.014-3.747.011-7.495.028-11.242.049v-4c13.032-2.435 25.927-3.34 39.163-3.422Z"/><path fill="#F09B17" d="m64.188 20.625 2.477-.041c4.566.035 7.66.408 11.335 3.416.875 2.625.875 2.625 1 5l-1 1c-2.14-.08-4.276-.228-6.41-.402-9.003-.682-18.003-.931-27.028-1.16l-4.853-.131C35.806 28.2 31.903 28.1 28 28l1-4c11.695-1.708 23.351-3.295 35.188-3.375Z"/><path fill="#083768" d="m65.688 63.875 2.974-.014 2.787.006 2.51.004C76 64 76 64 78 65c.188 2.375.188 2.375 0 5-6.267 4.178-15.848 2.15-23.125 1.5-8.941-.789-17.908-.58-26.875-.5l-1-4c12.95-2 25.59-3.08 38.688-3.125Z"/><path fill="#F09C18" d="M66 13c1.273 2.11 1.273 2.11 2 4-1 1-1 1-4.143 1.114-1.391 0-2.782-.006-4.173-.016l-2.216-.005c-2.343-.005-4.687-.018-7.03-.03A4809.622 4809.622 0 0 1 34 18l-1-4c9.737-5.208 22.935-6.373 33-1Z"/><path fill="#083767" d="M67 75v4c-8.327 4.484-16.722 5.05-26 4-2.456-.84-4.66-1.856-7-3l1-3c10.736-1.363 21.161-2.314 32-2Z"/></svg>